<svg width="512" height="512" viewBox="0 0 512 512" fill="none" xmlns="http://www.w3.org/2000/svg">
<rect width="512" height="512" fill="url(#paint0_linear_429_4724)"/>
<path d="M191.59 86.4289C274.485 40.3706 341.824 49.7764 409.684 171.908C453.092 250.033 424.738 366.971 341.843 413.029C258.949 459.087 147.146 420.025 103.738 341.899C60.329 263.774 59.5894 159.772 191.59 86.4289ZM233.405 214.959C210.694 227.578 202.513 256.218 215.132 278.929C227.75 301.64 256.391 309.821 279.102 297.202C301.813 284.584 309.994 255.943 297.375 233.232C284.756 210.522 256.116 202.34 233.405 214.959Z" fill="url(#paint1_linear_429_4724)"/>
<path d="M159.975 163.194C223.565 127.861 330.861 112.375 377.472 196.263C424.082 280.151 343.714 354.406 316.162 369.714C252.572 405.047 176.981 390.424 147.327 337.053C117.673 283.682 96.3846 198.526 159.975 163.194ZM233.405 214.959C210.694 227.578 202.513 256.218 215.132 278.929C227.75 301.64 256.391 309.821 279.102 297.203C301.813 284.584 309.994 255.943 297.375 233.233C284.756 210.522 256.116 202.34 233.405 214.959Z" fill="white" fill-opacity="0.2"/>
<path d="M201.008 186.677C276.672 144.637 347.077 180.303 371.305 223.908C417.458 297.287 389.896 347.582 349.243 370.17C308.59 392.757 225.381 378.736 201.153 335.131C176.925 291.526 146.316 217.066 201.008 186.677ZM233.406 214.959C210.695 227.578 202.513 256.218 215.132 278.929C227.751 301.64 256.391 309.821 279.102 297.202C301.813 284.583 309.994 255.943 297.376 233.232C284.757 210.522 256.116 202.34 233.406 214.959Z" fill="white" fill-opacity="0.2"/>
<defs>
<linearGradient id="paint0_linear_429_4724" x1="256" y1="0" x2="256" y2="512" gradientUnits="userSpaceOnUse">
<stop stop-color="#2C2C2C"/>
<stop offset="1" stop-color="#1C1C1C"/>
</linearGradient>
<linearGradient id="paint1_linear_429_4724" x1="254.095" y1="51.6996" x2="312.236" y2="429.48" gradientUnits="userSpaceOnUse">
<stop stop-color="#A7A6CF"/>
<stop offset="1" stop-color="#9F84D3"/>
</linearGradient>
</defs>
</svg>
